<?xml version="1.0" encoding="utf-8"?>
<!-- Generator: Adobe Illustrator 27.5.0, SVG Export Plug-In . SVG Version: 6.00 Build 0)  -->
<svg version="1.1" id="Layer_1" xmlns="http://www.w3.org/2000/svg" xmlns:xlink="http://www.w3.org/1999/xlink" x="0px" y="0px"
	 viewBox="0 0 512 512" style="enable-background:new 0 0 512 512;" xml:space="preserve">
<g>
	<path d="M256,195.04c-33.67,0.01-60.95,27.32-60.94,60.98c0.01,33.67,27.32,60.95,60.98,60.94c33.66-0.01,60.94-27.3,60.94-60.96
		C316.96,222.33,289.67,195.05,256,195.04z M398.53,148.18c-6.27-15.9-18.86-28.48-34.75-34.75c-24-9.47-81.14-7.35-107.77-7.35
		s-83.71-2.21-107.78,7.35c-15.9,6.27-28.48,18.86-34.75,34.75c-9.46,24-7.35,81.2-7.35,107.81c0,26.61-2.11,83.74,7.39,107.82
		c6.27,15.9,18.86,28.48,34.75,34.75c24,9.47,81.14,7.35,107.78,7.35s83.7,2.21,107.77-7.35c15.9-6.27,28.48-18.86,34.75-34.75
		c9.54-24,7.35-81.2,7.35-107.81c0-26.61,2.19-83.73-7.35-107.81L398.53,148.18z M256,349.71c-51.76,0-93.71-41.96-93.71-93.71
		s41.96-93.71,93.71-93.71s93.71,41.96,93.71,93.71c0.06,51.69-41.79,93.65-93.49,93.71H256z M353.58,180.23
		c-12.08,0.01-21.88-9.78-21.89-21.86c-0.01-12.08,9.78-21.88,21.86-21.89c12.08-0.01,21.88,9.78,21.89,21.86v0.01
		c0.05,12.06-9.68,21.87-21.74,21.92l-0.08,0L353.58,180.23z M457.14,0H54.86C24.56,0,0,24.56,0,54.86v402.29
		C0,487.44,24.56,512,54.86,512h402.29c30.3,0,54.86-24.56,54.86-54.86V54.86C512,24.56,487.44,0,457.14,0z M437.58,331.43
		c-1.47,29.29-8.16,55.25-29.54,76.57c-21.38,21.33-47.31,28.15-76.57,29.54c-30.18,1.7-120.67,1.7-150.86,0
		c-29.29-1.47-55.15-8.17-76.57-29.54s-28.15-47.34-29.54-76.57c-1.7-30.19-1.7-120.7,0-150.86c1.47-29.29,8.08-55.25,29.54-76.57
		s47.39-28.07,76.57-29.46c30.18-1.7,120.67-1.7,150.86,0c29.29,1.47,55.23,8.17,76.57,29.54c21.34,21.37,28.15,47.34,29.54,76.63
		C439.28,210.79,439.28,301.21,437.58,331.43z"/>
</g>
</svg>
